<svg xmlns="http://www.w3.org/2000/svg" width="20" height="30" viewBox="0 0 20 30"><defs><style>.cls-1{fill:#fff;fill-rule:evenodd}</style></defs><path id="Forma_1" data-name="Forma 1" class="cls-1" d="M434.407 1380H421v30h20v-23.23zm.593 3l3 3h-3v-3zm-2-1v6h6v9h-16v-15h10zm-10 26v-9h16v9h-16zm5.019-6.46a1.582 1.582 0 0 0-.467-.39 1.213 1.213 0 0 0-.6-.14h-1.939v5h1.049v-1.61h.921a1.2 1.2 0 0 0 .6-.15 1.359 1.359 0 0 0 .457-.38 1.9 1.9 0 0 0 .4-1.17 1.83 1.83 0 0 0-.112-.62 1.916 1.916 0 0 0-.309-.54zm-.778 1.67a.39.39 0 0 1-.319.18h-.858v-1.37h.819a.386.386 0 0 1 .179.04.425.425 0 0 1 .16.12.726.726 0 0 1 .112.21 1.029 1.029 0 0 1 .042.31.837.837 0 0 1-.135.51zm5.307-1.47a1.971 1.971 0 0 0-.706-.54 2.332 2.332 0 0 0-.986-.19h-1.695v5h1.695a2.335 2.335 0 0 0 .931-.18 2.042 2.042 0 0 0 .717-.51 2.264 2.264 0 0 0 .457-.79 3.085 3.085 0 0 0 .16-1.03 3.2 3.2 0 0 0-.144-.97 2.252 2.252 0 0 0-.429-.79zm-.575 2.36a1.539 1.539 0 0 1-.231.47 1.03 1.03 0 0 1-.374.31 1.063 1.063 0 0 1-.512.11h-.646v-2.97h.646a1.182 1.182 0 0 1 .506.11 1.03 1.03 0 0 1 .377.3 1.4 1.4 0 0 1 .234.47 2.29 2.29 0 0 1 0 1.2zm1.929 1.91h1.049v-1.97h1.676v-.94h-1.676v-1.08h2.034v-1.01H433.9v5z" transform="translate(-421 -1380)"/></svg>