<svg xmlns="http://www.w3.org/2000/svg" width="20" height="30" viewBox="0 0 20 30">
  <metadata><?xpacket begin="﻿" id="W5M0MpCehiHzreSzNTczkc9d"?>
<x:xmpmeta xmlns:x="adobe:ns:meta/" x:xmptk="Adobe XMP Core 5.6-c138 79.159824, 2016/09/14-01:09:01        ">
   <rdf:RDF xmlns:rdf="http://www.w3.org/1999/02/22-rdf-syntax-ns#">
      <rdf:Description rdf:about=""/>
   </rdf:RDF>
</x:xmpmeta>
                                                                                                    
                                                                                                    
                                                                                                    
                                                                                                    
                                                                                                    
                                                                                                    
                                                                                                    
                                                                                                    
                                                                                                    
                                                                                                    
                                                                                                    
                                                                                                    
                                                                                                    
                                                                                                    
                                                                                                    
                                                                                                    
                                                                                                    
                                                                                                    
                                                                                                    
                                                                                                    
                           
<?xpacket end="w"?></metadata>
<defs>
    <style>
      .cls-1 {
        fill: #fff;
        fill-rule: evenodd;
      }
    </style>
  </defs>
  <path id="Forma_1" data-name="Forma 1" class="cls-1" d="M434.407,1380H421v30h20v-23.23Zm0.593,3,3,3h-3v-3Zm-2-1v6h6v9H423v-15h10Zm-10,26v-9h16v9H423Zm5.019-6.46a1.582,1.582,0,0,0-.467-0.39,1.213,1.213,0,0,0-.6-0.14h-1.939v5h1.049v-1.61h0.921a1.2,1.2,0,0,0,.6-0.15,1.359,1.359,0,0,0,.457-0.38,1.9,1.9,0,0,0,.4-1.17,1.83,1.83,0,0,0-.112-0.62A1.916,1.916,0,0,0,428.019,1401.54Zm-0.778,1.67a0.39,0.39,0,0,1-.319.18h-0.858v-1.37h0.819a0.386,0.386,0,0,1,.179.04,0.425,0.425,0,0,1,.16.12,0.726,0.726,0,0,1,.112.21,1.029,1.029,0,0,1,.042.31A0.837,0.837,0,0,1,427.241,1403.21Zm5.307-1.47a1.971,1.971,0,0,0-.706-0.54,2.332,2.332,0,0,0-.986-0.19h-1.695v5h1.695a2.335,2.335,0,0,0,.931-0.18,2.042,2.042,0,0,0,.717-0.51,2.264,2.264,0,0,0,.457-0.79,3.085,3.085,0,0,0,.16-1.03,3.2,3.2,0,0,0-.144-0.97A2.252,2.252,0,0,0,432.548,1401.74Zm-0.575,2.36a1.539,1.539,0,0,1-.231.47,1.03,1.03,0,0,1-.374.31,1.063,1.063,0,0,1-.512.11H430.21v-2.97h0.646a1.182,1.182,0,0,1,.506.11,1.03,1.03,0,0,1,.377.3,1.4,1.4,0,0,1,.234.47A2.29,2.29,0,0,1,431.973,1404.1Zm1.929,1.91h1.049v-1.97h1.676v-0.94h-1.676v-1.08h2.034v-1.01H433.9v5Z" transform="translate(-421 -1380)"/>
</svg>
